<?xml version="1.0" standalone="no"?>
<svg viewBox="0 0 200 200" xmlns="http://www.w3.org/2000/svg">
  <path fill="#05BB75" d="M46.4,-63.8C58.9,-54.7,67.2,-39.6,73.8,-23.1C80.5,-6.5,85.6,11.5,82.6,28.8C79.7,46.1,68.7,62.8,53.6,72.3C38.5,81.8,19.2,84.2,2,81.5C-15.3,78.8,-30.6,70.9,-44.2,60.9C-57.8,50.9,-69.7,38.7,-75.6,23.8C-81.4,8.9,-81.2,-8.7,-76.8,-25.7C-72.3,-42.7,-63.5,-59.1,-50,-67.9C-36.5,-76.6,-18.3,-77.8,-0.7,-76.9C16.9,-75.9,33.8,-72.8,46.4,-63.8Z" transform="translate(100 100)" />
</svg>
